<svg width="23" height="23" viewBox="0 0 23 23" fill="none" xmlns="http://www.w3.org/2000/svg">
<path d="M9.7583 10.915C9.85986 10.9997 9.97412 11.0716 10.1011 11.1309C10.228 11.1901 10.3677 11.2197 10.52 11.2197C10.6724 11.2197 10.8162 11.1901 10.9517 11.1309C11.0871 11.0716 11.2056 10.9997 11.3071 10.915L15.6235 6.57324C15.7251 6.47168 15.8055 6.35742 15.8647 6.23047C15.924 6.10352 15.9536 5.96387 15.9536 5.81152C15.9536 5.50684 15.8478 5.2487 15.6362 5.03711C15.4246 4.82552 15.1665 4.71973 14.8618 4.71973C14.7095 4.71973 14.5698 4.74935 14.4429 4.80859C14.3159 4.86784 14.2017 4.93978 14.1001 5.02441L10.52 8.60449L9.12354 7.20801C9.02197 7.10645 8.90771 7.02604 8.78076 6.9668C8.65381 6.90755 8.51416 6.87793 8.36182 6.87793C8.05713 6.87793 7.79899 6.98372 7.5874 7.19531C7.37581 7.4069 7.27002 7.66504 7.27002 7.96973C7.27002 8.12207 7.29964 8.26172 7.35889 8.38867C7.41813 8.51562 7.49854 8.62988 7.6001 8.73145L9.7583 10.915ZM21.3618 13.3779H20.27V2.56152H21.3618C21.6665 2.56152 21.9246 2.45573 22.1362 2.24414C22.3478 2.03255 22.4536 1.77441 22.4536 1.46973C22.4536 1.16504 22.3478 0.9069 22.1362 0.695312C21.9246 0.483725 21.6665 0.37793 21.3618 0.37793H1.86182C1.55713 0.37793 1.29899 0.483725 1.0874 0.695312C0.875814 0.9069 0.77002 1.16504 0.77002 1.46973C0.77002 1.77441 0.875814 2.03255 1.0874 2.24414C1.29899 2.45573 1.55713 2.56152 1.86182 2.56152H2.95361V13.3779H1.86182C1.55713 13.3779 1.29899 13.4837 1.0874 13.6953C0.875814 13.9069 0.77002 14.165 0.77002 14.4697C0.77002 14.7744 0.875814 15.0326 1.0874 15.2441C1.29899 15.4557 1.55713 15.5615 1.86182 15.5615H10.52V16.8057L5.59424 20.0557C5.44189 20.1403 5.31917 20.2673 5.22607 20.4365C5.13298 20.6058 5.08643 20.7835 5.08643 20.9697C5.08643 21.2744 5.19222 21.5326 5.40381 21.7441C5.6154 21.9557 5.87354 22.0615 6.17822 22.0615C6.17822 22.0615 6.18669 22.0615 6.20361 22.0615C6.3221 22.0615 6.4279 22.0446 6.521 22.0107C6.6141 21.9769 6.70296 21.9261 6.7876 21.8584L10.52 19.3955V20.9697C10.52 21.2744 10.6258 21.5326 10.8374 21.7441C11.049 21.9557 11.3071 22.0615 11.6118 22.0615C11.9165 22.0615 12.1746 21.9557 12.3862 21.7441C12.5978 21.5326 12.7036 21.2744 12.7036 20.9697V19.3955L16.436 21.8584C16.5207 21.9261 16.6095 21.9769 16.7026 22.0107C16.7957 22.0446 16.9015 22.0615 17.02 22.0615C17.3247 22.0615 17.5828 21.9557 17.7944 21.7441C18.006 21.5326 18.1118 21.2744 18.1118 20.9697C18.1118 20.7835 18.0653 20.61 17.9722 20.4492C17.8791 20.2884 17.7648 20.1657 17.6294 20.0811L12.7036 16.8311V15.5615H21.3618C21.6665 15.5615 21.9246 15.4557 22.1362 15.2441C22.3478 15.0326 22.4536 14.7744 22.4536 14.4697C22.4536 14.165 22.3478 13.9069 22.1362 13.6953C21.9246 13.4837 21.6665 13.3779 21.3618 13.3779ZM18.1118 13.3779H5.11182V2.56152H18.1118V13.3779Z" fill="#5EB9F0"/>
</svg>
