<svg width="23" height="19" viewBox="0 0 23 19" fill="none" xmlns="http://www.w3.org/2000/svg">
<path d="M12.8782 9.44824C13.4537 8.95736 13.9065 8.36491 14.2366 7.6709C14.5667 6.97689 14.7317 6.2321 14.7317 5.43652C14.7317 4.6748 14.5878 3.97233 14.3 3.3291C14.0123 2.66895 13.6272 2.09342 13.1448 1.60254C12.6624 1.11165 12.0911 0.72233 11.4309 0.43457C10.7708 0.146811 10.0683 0.00292969 9.32349 0.00292969C8.56177 0.00292969 7.85929 0.146811 7.21606 0.43457C6.55591 0.72233 5.98039 1.11165 5.4895 1.60254C4.99862 2.09342 4.60929 2.66895 4.32153 3.3291C4.03377 3.97233 3.88989 4.6748 3.88989 5.43652C3.88989 6.2321 4.05493 6.97689 4.38501 7.6709C4.71509 8.36491 5.16789 8.95736 5.74341 9.44824C4.98169 9.80371 4.28768 10.2523 3.66138 10.7939C3.03507 11.3356 2.50187 11.945 2.06177 12.6221C1.62166 13.2992 1.27466 14.0355 1.02075 14.8311C0.766846 15.6266 0.639893 16.4645 0.639893 17.3447C0.639893 17.6494 0.745687 17.9076 0.957275 18.1191C1.16886 18.3307 1.427 18.4365 1.73169 18.4365C2.03638 18.4365 2.29452 18.3307 2.5061 18.1191C2.71769 17.9076 2.82349 17.6494 2.82349 17.3447C2.82349 16.4476 2.99276 15.6012 3.3313 14.8057C3.66984 14.027 4.1311 13.3415 4.71509 12.749C5.29907 12.1566 5.98885 11.6911 6.78442 11.3525C7.58 11.014 8.42635 10.8447 9.32349 10.8447C10.2206 10.8447 11.0585 11.014 11.8372 11.3525C12.6327 11.6911 13.3225 12.1566 13.9065 12.749C14.4905 13.3415 14.9602 14.027 15.3157 14.8057C15.6542 15.6012 15.8235 16.4476 15.8235 17.3447C15.8235 17.6494 15.9293 17.9076 16.1409 18.1191C16.3525 18.3307 16.6021 18.4365 16.8899 18.4365C17.1946 18.4365 17.4527 18.3307 17.6643 18.1191C17.8759 17.9076 17.9817 17.6494 17.9817 17.3447C17.9817 16.4645 17.8547 15.6266 17.6008 14.8311C17.3639 14.0355 17.0211 13.2992 16.5725 12.6221C16.1239 11.945 15.595 11.3356 14.9856 10.7939C14.3593 10.2692 13.6822 9.8291 12.9543 9.47363L12.8782 9.44824ZM9.32349 8.68652C8.42635 8.68652 7.6604 8.36914 7.02563 7.73438C6.39087 7.09961 6.07349 6.33366 6.07349 5.43652C6.07349 4.53939 6.39087 3.77344 7.02563 3.13867C7.6604 2.50391 8.42635 2.18652 9.32349 2.18652C10.2206 2.18652 10.9866 2.50391 11.6213 3.13867C12.2561 3.77344 12.5735 4.53939 12.5735 5.43652C12.5735 6.33366 12.2561 7.09961 11.6213 7.73438C10.9866 8.36914 10.2206 8.68652 9.32349 8.68652ZM21.9934 6.12207C21.8918 6.02051 21.7776 5.9401 21.6506 5.88086C21.5237 5.82161 21.384 5.79199 21.2317 5.79199C21.0793 5.79199 20.9397 5.82161 20.8127 5.88086C20.6858 5.9401 20.5715 6.02051 20.47 6.12207L18.2864 8.28027L17.6262 7.59473C17.5247 7.49316 17.4104 7.41276 17.2834 7.35352C17.1565 7.29427 17.0168 7.26465 16.8645 7.26465C16.7122 7.26465 16.5683 7.29427 16.4329 7.35352C16.2974 7.41276 16.179 7.49316 16.0774 7.59473C15.9928 7.69629 15.9208 7.81055 15.8616 7.9375C15.8023 8.06445 15.7727 8.2041 15.7727 8.35645C15.7727 8.50879 15.8023 8.64844 15.8616 8.77539C15.9208 8.90234 15.9928 9.0166 16.0774 9.11816L17.55 10.5654C17.6347 10.667 17.7447 10.7474 17.8801 10.8066C18.0155 10.8659 18.1594 10.8955 18.3118 10.8955C18.4472 10.8955 18.5826 10.8659 18.718 10.8066C18.8534 10.7474 18.9719 10.667 19.0735 10.5654L21.968 7.6709C22.0696 7.58626 22.1542 7.472 22.2219 7.32812C22.2896 7.18425 22.3235 7.03613 22.3235 6.88379C22.3235 6.73145 22.2939 6.58757 22.2346 6.45215C22.1754 6.31673 22.095 6.20671 21.9934 6.12207Z" fill="#5EB9F0"/>
</svg>
